<svg width="11" height="11" viewBox="0 0 11 11" fill="none" xmlns="http://www.w3.org/2000/svg">
<path d="M5.50026 5.37972C6.72327 5.37972 7.71481 4.17544 7.71481 2.68988C7.71481 1.20428 7.38927 0 5.50026 0C3.61124 0 3.28564 1.20428 3.28564 2.68988C3.28564 4.17544 4.27718 5.37972 5.50026 5.37972Z" fill="#93B474"/>
<path d="M1.31733 9.4868C1.31695 9.39622 1.31658 9.46128 1.31733 9.4868V9.4868Z" fill="#93B474"/>
<path d="M9.68262 9.55756C9.68381 9.53276 9.68303 9.38552 9.68262 9.55756V9.55756Z" fill="#93B474"/>
<path d="M9.67823 9.3782C9.63722 6.79031 9.29924 6.0529 6.71288 5.58612C6.71288 5.58612 6.34881 6.05004 5.50024 6.05004C4.65167 6.05004 4.28754 5.58612 4.28754 5.58612C1.72941 6.04781 1.37087 6.77428 1.32373 9.29412C1.31987 9.49989 1.31807 9.5107 1.31738 9.48681C1.31754 9.53157 1.31773 9.61435 1.31773 9.7587C1.31773 9.7587 1.93348 11 5.50024 11C9.06695 11 9.68276 9.7587 9.68276 9.7587C9.68276 9.66596 9.68282 9.60147 9.68292 9.55759C9.68223 9.57236 9.68084 9.54373 9.67823 9.3782Z" fill="#93B474"/>
</svg>
