<?xml version="1.0" encoding="utf-8"?><svg viewBox="0 0 502.66 502.66" xmlns="http://www.w3.org/2000/svg" xmlns:xlink="http://www.w3.org/1999/xlink"><style>:root>svg{display:none}:root>svg:target{display:block}</style><svg viewBox="0 0 11 7" id="arrow__down" xmlns="http://www.w3.org/2000/svg"><path fill-rule="evenodd" clip-rule="evenodd" d="M5.493 4.466L1.345.79 0 2.08l5.493 4.85L11 2.08 9.655.79 5.493 4.466z"/></svg><svg viewBox="0 0 24 24" id="arrow__news-right" xmlns="http://www.w3.org/2000/svg"><g clip-path="url(#aba)"><path d="M23.794 15.498l-3.675 3.657a.703.703 0 01-.992-.997l2.467-2.455H6.704a.703.703 0 110-1.406h14.89l-2.467-2.455a.703.703 0 11.992-.997l3.674 3.657a.704.704 0 010 .996z"/></g><defs><clipPath id="aba"><path transform="matrix(1 0 0 -1 6 24)" d="M0 0h18v18H0z"/></clipPath></defs></svg><svg viewBox="0 0 15 15" id="arrow_down" xmlns="http://www.w3.org/2000/svg"><path d="M13.75 8.75l-.875-.875-4.75 4.75V0h-1.25v12.625l-4.75-4.75-.875.875L7.5 15l6.25-6.25z"/></svg><svg viewBox="0 0 15 15" id="arrow_top" xmlns="http://www.w3.org/2000/svg"><path d="M13.75 6.25l-.875.875-4.75-4.75V15h-1.25V2.375l-4.75 4.75-.875-.875L7.5 0l6.25 6.25z"/></svg><svg viewBox="0 0 36 36" id="box" xmlns="http://www.w3.org/2000/svg"><path d="M34.512 7.35L18.199 1.161a.558.558 0 00-.398 0L1.488 7.349a.562.562 0 00-.363.526v20.25a.563.563 0 00.361.525L17.8 34.917a.563.563 0 00.4 0l16.313-6.21a.562.562 0 00.363-.526V7.875a.562.562 0 00-.363-.526zM18 2.288l14.727 5.586L18 13.461l-4.474-1.697 7.002-2.651a.562.562 0 000-1.052l-4.196-1.592a.563.563 0 00-.4 0L7.748 9.572 3.273 7.875 18 2.289zm-9.563 8.748l2.813 1.069v8.401L8.437 19.43v-8.393zm.896-.864l6.8-2.58 2.609.99-6.802 2.58-2.607-.99zM2.25 8.69l5.063 1.92v9.207a.562.562 0 00.361.525l3.938 1.508a.563.563 0 00.763-.526V12.53l5.063 1.92v19.122L2.25 27.74V8.69zm16.313 24.885V14.45L33.75 8.69v19.104l-15.188 5.781z"/><path d="M23.987 28.136l-3.383 1.287a.563.563 0 10.4 1.052l3.383-1.288a.563.563 0 10-.4-1.051zm3.372-1.284l-1.133.431a.562.562 0 10.4 1.051l1.133-.43a.563.563 0 10-.4-1.052zm-3.372-.966l-3.383 1.287a.563.563 0 10.4 1.052l3.383-1.288a.563.563 0 10-.4-1.051zm3.372-1.284l-1.133.431a.562.562 0 10.4 1.051l1.133-.43a.563.563 0 10-.4-1.052zm-3.372-.966l-3.383 1.287a.563.563 0 10.4 1.052l3.383-1.288a.563.563 0 10-.4-1.051zm3.372-1.284l-1.133.431a.562.562 0 10.4 1.051l1.133-.43a.563.563 0 10-.4-1.052z"/></svg><svg viewBox="0 0 59 54" id="briar" xmlns="http://www.w3.org/2000/svg"><path d="M2.294 52.327l-.59.134c-.153 0-.284.022-.437.022a.197.197 0 00-.153-.067c.132-.29.24-.58.372-.87.284-.513.546-1.048.83-1.56a.365.365 0 00.066-.202c.153-.111.284-.223.437-.312l4.785 1.205c.088.959.153 1.918.24 2.877-.13.134-.261.29-.414.424-.765-.647-1.486-1.495-2.623-.58-.087.067-.546-.156-.611-.313-.35-1.048-.984-1.248-1.902-.758zm-.59-5.219c-.021-.09-.065-.156-.087-.245-.044-.068-.087-.134-.131-.224 0-.067-.022-.156-.066-.2C.94 44.565.48 42.69 0 40.818a.266.266 0 00.11-.112c.021-1.249.021-2.476.043-3.725 0-.267-.022-.557-.022-.825.328-1.093.656-2.208.983-3.301.044-.09.088-.178.153-.268.044-.067.11-.134.153-.2.263-.447.525-.893.787-1.316a115.95 115.95 0 002.535-2.097c.087-.045.153-.111.24-.156a.348.348 0 00.197-.067.9.9 0 00.24-.156c.284-.09.568-.179.83-.268.241-.045.481-.111.722-.156.48-.022.983-.045 1.464-.09.175-.133.328-.267.502-.4.219-.447.416-.893.634-1.317.11-.223.219-.446.306-.646.175-.246.371-.447.524-.714 2.448-4.127 5.682-7.495 9.637-10.127 2.338-1.561 4.786-2.944 7.517-3.725l.983-.401c.197-1.182.416-2.387.612-3.569.11-.334.219-.669.306-1.004.94-1.918 2.382-3.39 4.152-4.55.131-.089.262-.156.415-.245a.348.348 0 00.197-.067c.218-.112.459-.245.677-.357.525-.2 1.027-.401 1.552-.602C37.17.245 37.869.112 38.59 0c.131.09.284.178.416.29.021.067.065.156.087.223.065.09.11.156.175.245.743 2.967 1.355 5.911.175 8.922-.022.045.196.246.284.246.633-.156 1.245-.335 1.879-.513l3.103-.134c2.272.29 4.195 1.45 6.097 2.632.306.223.611.446.896.669l.458.401c-.043.513.088 1.183-.174 1.517-1.224 1.628-2.579 3.19-3.89 4.751-.24.268-.503.513-.765.758.328.09.656.223.983.268 2.513.357 4.568 1.54 6.36 3.346 1.529 1.561 2.447 3.457 3.277 5.442.044.134.087.29.131.424.262 1.048.525 2.074.787 3.123.022.133.044.29.065.423.11.96-.371 1.45-1.245 1.629-1.595.334-3.169.669-4.764 1.003-.786-.022-1.551-.022-2.338-.044-2.731-.357-5.244-1.25-7.408-3.056-.328-.312-.655-.647-.983-.96l-.044-.066-2.12-3.435c-.546 1.383-1.136 2.9-1.726 4.439-.065.089-.109.156-.174.245-1.465 1.561-2.95 3.1-4.415 4.662h-.371c-.503-.469-1.114-.87-1.486-1.428-1.093-1.628-2.098-3.345-3.125-5.018-.022-.067-.022-.156-.043-.223a2.048 2.048 0 00-.154-.313c-.371-1.717-.611-3.434-.218-5.174.022-.134 0-.268 0-.402-.131.045-.284.09-.393.156-1.967 1.272-4.152 1.919-6.425 2.41-1.092-.491-.83-1.584-1.027-2.477.044-1.516.088-3.033.153-4.55.153-.758.328-1.539.48-2.297.372-.602.722-1.205 1.093-1.807a7.02 7.02 0 00.263-.424c.022-.044.043-.089.065-.156l-.13.067c-.132.09-.263.156-.416.245-.437.313-.874.603-1.333.915-.48.334-.94.67-1.42.981-.656.402-.94.915-.787 1.74.284 1.383.503 2.81.743 4.194a365.215 365.215 0 011.88 4.282c.261.602.458 1.271 1.354 1.07 2.163-.512 3.868.402 5.376 1.83 1.354 1.606 2.076 3.546 2.666 5.553l.065.67c.044.223.11.468.153.691.175 2.476-.284 4.818-1.333 7.048-1.377 1.205-3.147 1.406-4.786 1.919-3.758-1.896-6.337-4.818-7.495-8.99.022-.066.044-.133.066-.178.153-1.65.306-3.3.437-4.974.568-.691 1.114-1.427 1.726-2.096.306-.313.568-.513.262-1.004-1.617-2.61-2.6-5.465-3.037-8.52-.11-.692-.306-.513-.612-.179-1.945 2.03-3.496 4.372-4.807 6.87-.066.134.109.625.262.67 2.6.87 4.043 2.765 4.742 5.397.043.111.087.2.13.312-.02.045-.02.09.023.134.022 1.182.022 2.387.044 3.569-.503 3.658-2.033 6.803-4.415 9.546-1.158.826-2.316 1.673-3.474 2.498-.437-.022-.874.023-1.29-.066-1.092-.246-2.184-.603-3.277-.803-.765-.134-1.333-.491-1.726-1.16-.022-.067-.066-.156-.088-.223-.043-.067-.109-.157-.153-.223a.365.365 0 00-.065-.201c0-.09-.066-.156-.11-.223zM34.22 13.16h-.022c.153-.134.306-.29.459-.424 1.246-.156 1.486-.401 1.53-1.561.699.089.699-.38.677-.893.809-.223.962-.825.874-1.583h-.022c.918-.424.284-1.25.437-1.874-.13-1.249-.284-2.498-.415-3.747-.087-.78-.437-.848-1.114-.602-4.59 1.65-6.468 5.04-5.463 9.948.306 1.45.459 1.583 1.9 1.383.372-.045.897.223.875-.491l.022.045c.109-.045.196-.134.262-.201zm5.55-1.026c-.218.156-.437.312-.633.468l-.022-.067.022.067c-.569-.134-.787.156-.874.67v-.023l-.219.223.022.045c-1.049-.201-.765.713-.962 1.226-.546-.022-.677.313-.611.803 0 .045 0 .09-.044.112-.525-.045-.896.112-.874.758.022.491-.088 1.071.7 1.004.698.402 1.376.825 2.097 1.16 2.862 1.36 5.66 1.405 8.194-.714 1.137-.959 2.032-2.208 3.038-3.323.437-.491.284-.803-.219-1.138-2.25-1.472-4.61-2.542-7.364-2.208-.393.134-.808.29-1.202.424-.043.044-.087.044-.13.044-.329.157-.635.313-.919.469 0 0-.022 0 0 0zm-2.447 18.691l.437-.446c.087-.379.218-.78.24-1.16.022-1.249-.022-2.498-.043-3.725l.021.023a1.508 1.508 0 00-.152-.246c-.46-1.918-1.443-3.546-2.645-5.063-.393-.49-.742-.58-1.114-.089-1.07 1.383-2.316 2.677-3.125 4.216-.546 1.07-.699 2.498-.634 3.747.132 2.721 1.618 4.84 3.322 6.847.131.112.328.313.35.29.612-.58 1.551-.914 1.507-2.007l.022-.022c.153-.201.306-.424.481-.625h-.022c.7-.178.918-.67.874-1.338h-.022c.175-.134.328-.268.503-.402zm10.51-8.654a75.74 75.74 0 01-2.337-.223c.021.045.043.111.087.156.022.022.066.022.11.022-1.028.223-2.077.38-3.082.67-1.092.312-1.508.981-1.29 2.096.503 2.543 1.596 4.773 3.672 6.38 3.43 2.654 7.255 2.654 11.232 1.74.612-.135.612-.536.502-1.005-1.223-4.929-3.605-8.765-8.893-9.836zm-25.37.558c0 .49.023.959 0 1.45-.043.802.328 1.048.984.736 1.464-.714 3.016-1.316 4.327-2.253 1.398-1.004 2.403-2.454 2.862-4.216.59-2.342-1.136-4.126-3.387-3.457-.765.223-1.53.691-2.141 1.227-1.967 1.695-2.775 3.925-2.644 6.513z"/><path d="M17.197 37.784c-.087-1.137-.174-2.297-.262-3.434.24-.514.48-1.026.7-1.517a414.833 414.833 0 01-.438 4.951zm20.06-7.449c.59-1.562.809-3.19.678-4.863.022 1.25.065 2.498.043 3.725 0 .38-.153.78-.24 1.16-.131 0-.284 0-.415.022l-.066-.044zm-3.649 4.572l1.88-1.717c.021 1.093-.918 1.427-1.508 2.007-.044.022-.24-.178-.372-.29zm1.049-22.193l1.53-1.562c-.044 1.16-.284 1.428-1.53 1.562zM20.54 25.004c-.043-1.183-.065-2.365-.108-3.57.087-.334.174-.668.24-1.003l-.131 4.573zm15.887-9.346c-.131.58-1.049 1.093-.153 1.762-.787.067-.677-.513-.7-1.004-.043-.669.329-.803.853-.758zm1.617-2.141c-.328.401-.634.825-.961 1.226.196-.513-.088-1.405.961-1.226zm-2.098 19.048c.284-.446.59-.892.874-1.338.044.669-.153 1.182-.874 1.338zm.918-22.283c.284-.535.59-1.048.874-1.583.088.758-.065 1.36-.874 1.583zm10.97 11.889c-.721 0-1.443-.022-2.164-.022-.043 0-.087 0-.109-.023a.362.362 0 01-.087-.156l2.36.201z"/><path d="M37.716 8.721c.153-.624.284-1.249.437-1.873-.13.624.481 1.45-.437 1.873zm-1.529 2.454c.218-.29.459-.58.677-.893.022.491.022.96-.677.893zm2.928 1.427c-.284.223-.568.446-.874.67.087-.514.306-.826.874-.67zm-6.031 1.228c.284-.157.59-.335.874-.492 0 .736-.525.469-.874.491zm8.937-2.61c-.393.133-.808.29-1.202.423.394-.156.787-.29 1.202-.424zM36.82 31.227c.153-.29.284-.602.437-.892l.066.067v.446c-.175.111-.328.245-.503.379zm-8.915-20.32l.655-.134-.983.402c.11-.112.218-.179.328-.268zm9.178 3.836c-.197.268-.416.536-.612.803-.066-.49.065-.803.612-.803zm.24 16.082v-.446c.131 0 .284 0 .415-.022-.13.156-.284.312-.415.468zM25.108 47.554c1.005-.312 2.01-.58 2.994-.96.568-.222.961-.155 1.332.313l.918 1.606c-.59.067-1.18.112-1.77.178-.459.157-.896.313-1.355.469h.022c-.196-.045-.415-.067-.612-.112-.043.067-.109.09-.174.112-.11.134-.24.268-.35.401-.087.112-.153.246-.24.357-.153.156-.328.268-.481.402-.066-.223-.197-.446-.219-.67-.043-.713-.043-1.405-.065-2.096z"/><path d="M27.227 49.138c.46-.157.896-.313 1.355-.469-.524 1.16-.524 1.16-1.355.469z"/></svg><svg viewBox="0 0 43 43" id="cake" xmlns="http://www.w3.org/2000/svg"><g clip-path="url(#aga)"><path d="M17.916 30.47h1.433v1.433h-1.433V30.47zm1.434 1.433h1.432v1.433H19.35v-1.433zm12.9-1.433h1.433v1.433h-1.434V30.47zm-1.434 1.433h1.433v1.433h-1.433v-1.433zm-22.216 0h1.432v1.433H8.6v-1.433zm1.433-1.433h1.433v1.433h-1.433V30.47zm4.3-8.6h1.433v1.433h-1.433v-1.434zm1.433-1.434H17.2v1.433h-1.433v-1.433zm12.184.717h1.433v1.433H27.95v-1.433zm9.316 0H38.7v1.433h-1.433v-1.433z"/><path d="M40.133 32.813V17.569a10.05 10.05 0 00-8.616-9.924c.005-.089.015-.175.015-.264V6.103a.717.717 0 00-.716-.717h-1.278a5.173 5.173 0 00-4.632 2.884 4.986 4.986 0 00-4.672-2.135 7.878 7.878 0 00-6.617-3.615v1.433a6.437 6.437 0 015.146 2.58 4.992 4.992 0 00-2.701 6.267L3.33 17.616a.708.708 0 00-.452.67h-.011v14.527C.947 33.564 0 34.44 0 35.486c0 3.968 14.064 5.017 21.5 5.017S43 39.455 43 35.486c0-1.046-.947-1.922-2.867-2.673zM4.3 25.073c.481-.001.943.189 1.284.528a3.253 3.253 0 004.597 0 1.82 1.82 0 012.57 0 3.253 3.253 0 004.597 0 1.82 1.82 0 012.57 0 3.253 3.253 0 004.596 0 1.82 1.82 0 012.57 0 3.25 3.25 0 004.597 0 1.82 1.82 0 012.57 0 3.225 3.225 0 004.45.121v1.9a3.07 3.07 0 00-.966.649 1.679 1.679 0 01-2.371 0l-.2-.2a3.116 3.116 0 00-4.398 0l-.198.198a1.68 1.68 0 01-2.37 0l-.2-.2a3.116 3.116 0 00-4.399 0l-.198.199a1.68 1.68 0 01-2.37 0l-.2-.2a3.115 3.115 0 00-4.399 0l-.197.199a1.679 1.679 0 01-2.371 0l-.2-.2a3.116 3.116 0 00-4.398 0l-.198.198a1.68 1.68 0 01-2.37 0l-.2-.2a3.094 3.094 0 00-2.198-.9v-2.092zm34.4-1.099c-.32.156-.613.363-.866.614a1.82 1.82 0 01-2.57 0 3.25 3.25 0 00-4.595-.002l-.001.002a1.82 1.82 0 01-2.57 0 3.253 3.253 0 00-4.597 0 1.82 1.82 0 01-2.57 0 3.253 3.253 0 00-4.597 0 1.82 1.82 0 01-2.57 0 3.253 3.253 0 00-4.596 0 1.82 1.82 0 01-2.57 0 3.248 3.248 0 00-2.298-.95v-4.635h3.287l2.032 2.032a2.616 2.616 0 003.696 0l2.032-2.032h2.99l2.032 2.032a2.616 2.616 0 003.695 0l2.033-2.032h2.99l2.032 2.032a2.616 2.616 0 003.696 0l2.032-2.032H38.7v4.971zM4.3 28.6a1.67 1.67 0 011.184.485l.199.2a3.116 3.116 0 004.4 0l.197-.198a1.68 1.68 0 012.37 0l.2.2a3.115 3.115 0 004.399 0l.197-.199a1.68 1.68 0 012.371 0l.2.2a3.115 3.115 0 004.398 0l.198-.198a1.68 1.68 0 012.37 0l.2.2a3.116 3.116 0 004.4 0l.197-.2a1.68 1.68 0 012.37 0l.2.2a3.104 3.104 0 004.35.034v5.447H4.3V28.6zm27.102-17.784l1.021 1.021-1.021 1.021a2.857 2.857 0 01-4.038 0l-1.022-1.02 1.022-1.022a2.857 2.857 0 014.038 0zM29.538 6.82h.562v.561c0 .414-.07.825-.205 1.215a4.264 4.264 0 00-3.544 1.206l-.528.527a3.732 3.732 0 013.715-3.51zm-10.034.963a6.41 6.41 0 01.563 2.62v.716H21.5v-.716a7.832 7.832 0 00-.541-2.849 3.576 3.576 0 11-1.454.229zm-2.766 6.292a5.005 5.005 0 008.704-1.11l.907.906a4.293 4.293 0 006.064 0l1.53-1.528a.717.717 0 000-1.014l-1.528-1.527a4.215 4.215 0 00-1.016-.73A8.618 8.618 0 0138.7 17.57h-2.15a.717.717 0 00-.507.21l-2.242 2.242a1.18 1.18 0 01-1.668 0L29.89 17.78a.717.717 0 00-.507-.21H25.8a.717.717 0 00-.507.21l-2.242 2.242a1.18 1.18 0 01-1.668 0L19.14 17.78a.717.717 0 00-.507-.21H15.05a.717.717 0 00-.507.21l-2.242 2.242a1.18 1.18 0 01-1.668 0L8.39 17.78a.717.717 0 00-.507-.21h-.38l9.235-3.495zM21.5 39.07c-12.984 0-20.067-2.365-20.067-3.584 0-.185.335-.615 1.434-1.12v1.12c0 .396.32.717.716.717h35.834a.717.717 0 00.716-.717v-1.12c1.1.503 1.434.932 1.434 1.12 0 1.219-7.083 3.584-20.067 3.584z"/></g><defs><clipPath id="aga"><path d="M0 0h43v43H0z"/></clipPath></defs></svg><svg viewBox="0 0 24 24" id="cart" xmlns="http://www.w3.org/2000/svg"><path d="M22.574 23.255L21.2 6.271a.645.645 0 00-.643-.594h-3.684v-.816C16.874 2.18 14.722 0 12.042 0h-.085c-2.68 0-4.89 2.18-4.89 4.86v.817H3.44a.645.645 0 00-.643.594L1.42 23.303a.645.645 0 00.643.697h19.872a.645.645 0 00.638-.745zM8.358 4.861c0-1.969 1.63-3.57 3.599-3.57h.085c1.968 0 3.541 1.601 3.541 3.57v.816H8.358v-.816z"/></svg><svg viewBox="0 0 48 48" id="cart-payment" xmlns="http://www.w3.org/2000/svg"><circle cx="24" cy="24" r="18"/><circle cx="24" cy="24" r="24" fill-opacity=".15"/><path d="M28.813 25.719v-8.25c0-.569-.463-1.032-1.032-1.032h-13.75c-.568 0-1.031.463-1.031 1.032v8.25c0 .568.463 1.031 1.031 1.031h13.75c.569 0 1.032-.463 1.032-1.031zm-15.125 0v-8.25c0-.19.154-.344.343-.344h13.75c.19 0 .344.154.344.344v8.25c0 .19-.154.343-.344.343h-13.75a.344.344 0 01-.344-.343z"/><path d="M33.969 21.25h-4.125a.344.344 0 100 .688h4.125c.19 0 .343.154.343.343V24h-4.468a.344.344 0 100 .688h4.468v5.843c0 .19-.154.344-.343.344h-13.75a.344.344 0 01-.344-.344v-2.75a.344.344 0 00-.688 0v2.75c0 .569.463 1.032 1.032 1.032h13.75c.568 0 1.031-.463 1.031-1.032v-8.25c0-.568-.463-1.031-1.031-1.031zm-13.75 2.406H18.5a.344.344 0 000 .688h1.719a.344.344 0 000-.688zm-3.094 0h-1.719a.344.344 0 000 .688h1.719a.344.344 0 000-.688z"/><path d="M26.406 23.656h-1.718a.344.344 0 000 .688h1.718a.344.344 0 000-.688zm-3.093 0h-1.72a.344.344 0 000 .688h1.72a.344.344 0 000-.688zm-6.532-5.5H15.75c-.569 0-1.031.463-1.031 1.032v.343c0 .569.462 1.032 1.031 1.032h1.031c.569 0 1.032-.463 1.032-1.032v-.343c0-.57-.463-1.032-1.032-1.032zm.344 1.375c0 .19-.154.344-.344.344H15.75a.344.344 0 01-.344-.344v-.343c0-.19.154-.344.344-.344h1.031c.19 0 .344.154.344.343v.344zm8.594-1.375c-.41 0-.78.181-1.032.467a1.372 1.372 0 00-1.03-.467c-.759 0-1.376.617-1.376 1.375a1.377 1.377 0 002.407.908c.252.286.62.467 1.03.467.759 0 1.376-.617 1.376-1.375s-.617-1.375-1.375-1.375zm-2.063 2.063a.688.688 0 11.002-1.377.688.688 0 01-.002 1.377zm2.063 0a.688.688 0 010-1.375.688.688 0 010 1.375zm4.125 3.094h3.781a.344.344 0 000-.688h-3.781a.344.344 0 100 .688zm2.75 4.125h-6.532a.344.344 0 000 .687h6.532a.344.344 0 000-.688zm0 1.375h-4.125a.344.344 0 100 .687h4.125a.344.344 0 000-.688z"/></svg><svg viewBox="0 0 8 10" id="cart__amount-left" xmlns="http://www.w3.org/2000/svg"><g clip-path="url(#aja)"><path fill-rule="evenodd" clip-rule="evenodd" d="M2.568 4.994L6.4 1.223 5.055 0 0 4.994 5.055 10 6.4 8.777 2.568 4.994z"/></g><defs><clipPath id="aja"><path transform="matrix(0 1 1 0 0 0)" d="M0 0h10v8H0z"/></clipPath></defs></svg><svg viewBox="0 0 8 10" id="cart__amount-right" xmlns="http://www.w3.org/2000/svg"><g clip-path="url(#aka)"><path fill-rule="evenodd" clip-rule="evenodd" d="M5.432 4.994L1.6 1.223 2.945 0 8 4.994 2.945 10 1.6 8.777l3.832-3.783z"/></g><defs><clipPath id="aka"><path transform="rotate(90 4 4)" d="M0 0h10v8H0z"/></clipPath></defs></svg><svg viewBox="0 0 48 48" id="cesh" xmlns="http://www.w3.org/2000/svg"><circle cx="24" cy="24" r="18"/><circle cx="24" cy="24" r="24" fill-opacity=".15"/><g clip-path="url(#ala)"><path d="M33.183 23.084v-2.811c0-.953-.666-1.728-1.507-1.804l-2.349-4.56a1.652 1.652 0 00-.99-.847 1.468 1.468 0 00-1.231.183l-8.054 5.21h-1.415c-.902 0-1.636.815-1.636 1.818v10.909c0 1.003.734 1.818 1.636 1.818h13.91c.902 0 1.636-.815 1.636-1.818V28.37c.475-.188.818-.688.818-1.28v-2.727c0-.592-.343-1.092-.818-1.28zm-5.665-9.053a.723.723 0 01.607-.091.82.82 0 01.492.422l.797 1.547a2.57 2.57 0 01-1.14.273c-.88 0-1.684-.443-2.225-1.202l1.469-.95zm-2.18 1.409c.695 1.04 1.763 1.651 2.935 1.651.531 0 1.058-.139 1.547-.395l.906 1.759H20.678l4.66-3.015zm7.026 15.742c0 .501-.367.909-.818.909H17.637c-.45 0-.818-.408-.818-.91V20.274c0-.501.367-.91.818-.91h13.91c.45 0 .817.409.817.91V23H29.91c-1.354 0-2.455 1.224-2.455 2.727 0 1.504 1.101 2.728 2.455 2.728h2.454v2.727zm.819-4.091c0 .25-.184.454-.41.454H29.91c-.903 0-1.637-.815-1.637-1.818 0-1.002.734-1.818 1.637-1.818h2.863c.226 0 .41.204.41.455v2.727z"/><path d="M29.909 24.818c-.451 0-.818.408-.818.91 0 .5.367.908.818.908.451 0 .818-.407.818-.909 0-.5-.367-.909-.818-.909z"/></g><defs><clipPath id="ala"><path transform="translate(16 13)" d="M0 0h18v20H0z"/></clipPath></defs></svg><svg viewBox="0 0 16 16" id="close-button" xmlns="http://www.w3.org/2000/svg"><g clip-path="url(#ama)"><path d="M16 14.4L14.4 16 8 9.6 1.6 16 0 14.4 6.4 8 0 1.6 1.6 0 8 6.4 14.4 0 16 1.6 9.6 8l6.4 6.4z"/></g><defs><clipPath id="ama"><path transform="matrix(1 0 0 -1 0 16)" d="M0 0h16v16H0z"/></clipPath></defs></svg><svg viewBox="0 0 12 12" id="close-button_-filter" xmlns="http://www.w3.org/2000/svg"><g clip-path="url(#ana)"><path d="M12 1.2L10.8 0 6 4.8 1.2 0 0 1.2 4.8 6 0 10.8 1.2 12 6 7.2l4.8 4.8 1.2-1.2L7.2 6 12 1.2z"/></g><defs><clipPath id="ana"><path d="M0 0h12v12H0z"/></clipPath></defs></svg><svg viewBox="0 0 16 21" id="copy" xmlns="http://www.w3.org/2000/svg"><g clip-path="url(#aoa)"><path d="M0 0c.005.097.01.19.01.287v18.215h2.451V21H16V2.513h-2.435V0H0zm1.259 17.27V1.247h11.057v16.025H1.259zM14.772 3.74v16.034H3.72v-1.272h9.85V3.739h1.202z"/></g><defs><clipPath id="aoa"><path transform="matrix(1 0 0 -1 0 21)" d="M0 0h16v21H0z"/></clipPath></defs></svg><svg viewBox="0 0 49 49" id="dinner-table" xmlns="http://www.w3.org/2000/svg"><path d="M2.297 13.781h3.062a.766.766 0 01.766.766v16.078h6.125a1.531 1.531 0 011.531 1.531v1.532a.766.766 0 01.766.765v2.297a.766.766 0 01-.766.766h-.765v9.187a.766.766 0 01-.766.766H9.953a.766.766 0 01-.765-.766v-9.187h-3.83v9.187a.766.766 0 01-.765.766H2.297a.766.766 0 01-.766-.766V14.547a.766.766 0 01.766-.766zm10.719 22.203v-.765H3.062v.765h9.954zm-.766-3.828H6.125v.766H4.594v-17.61H3.062v18.376h9.188v-1.532zm-1.531 13.782h.765v-8.422h-.765v8.422zm-7.656 0h.765v-8.422h-.765v8.422z"/><path d="M15.313 29.86a1.532 1.532 0 01-1.532-1.532v-.765h-.765a.766.766 0 01-.766-.766v-1.531a2.297 2.297 0 012.297-2.297h1.824a3.044 3.044 0 01-1.058-2.297H13.78V19.14h1.531v-.766a.766.766 0 01.766-.766h4.594a.766.766 0 01.765.766v2.297a3.043 3.043 0 01-1.058 2.297h8.242a3.044 3.044 0 01-1.058-2.297v-2.297a.766.766 0 01.765-.766h4.594a.766.766 0 01.766.766v.766h1.53v1.53h-1.53a3.043 3.043 0 01-1.059 2.298h1.824a2.297 2.297 0 012.297 2.297v1.53a.766.766 0 01-.766.767h-.765v.765a1.532 1.532 0 01-1.532 1.531h-6.89v13.016h.765a.766.766 0 01.766.766v2.297h3.063v1.53H17.609v-1.53h3.063V43.64a.766.766 0 01.765-.766h.766V29.859h-6.89zm4.593-10.72h-3.062v1.532a1.531 1.531 0 103.062 0V19.14zm12.25 0h-3.062v1.532a1.531 1.531 0 103.062 0V19.14zm3.063 6.126a.766.766 0 00-.766-.766H14.547a.766.766 0 00-.766.766v.765H35.22v-.765zm-1.532 2.297H15.314v.765h18.374v-.765zm-6.89 18.375v-1.532h-4.594v1.532h4.594zm-3.063-3.063h1.532V29.859h-1.532v13.016z"/><path d="M35.219 33.688v-1.532a1.531 1.531 0 011.531-1.531h6.125V14.547a.766.766 0 01.766-.766h3.062a.766.766 0 01.766.766v32.156a.766.766 0 01-.766.766h-2.297a.766.766 0 01-.765-.766v-9.187h-3.828v9.187a.766.766 0 01-.766.766H36.75a.766.766 0 01-.766-.766v-9.187h-.765a.766.766 0 01-.766-.766v-2.297a.766.766 0 01.766-.766zm10.718-18.376h-1.53v17.61h-1.532v-.766H36.75v1.532h9.188V15.311zm-.765 30.626h.766v-8.422h-.766v8.422zm-7.656 0h.765v-8.422h-.765v8.422zm-1.532-9.954h9.953v-.765h-9.953v.765z"/></svg><svg viewBox="0 0 13 13" id="downwards-arrow-key" xmlns="http://www.w3.org/2000/svg"><path d="M1.517 2.492L6.5 7.475l4.983-4.983L13 4.008l-6.5 6.5-6.5-6.5 1.517-1.516z"/></svg><svg viewBox="0 0 15 15" id="email" xmlns="http://www.w3.org/2000/svg"><g clip-path="url(#ara)"><path d="M1.44 5.24c.19.134.761.531 1.716 1.193.954.66 1.685 1.17 2.193 1.527l.355.255a9.533 9.533 0 00.888.591c.17.1.33.175.481.225.15.05.29.076.419.076h.016c.129 0 .268-.025.419-.076.15-.05.311-.125.481-.225.17-.101.316-.192.436-.272.12-.081.27-.187.452-.319l.355-.255 3.918-2.72a3.976 3.976 0 001.02-1.03A2.21 2.21 0 0015 2.946c0-.368-.133-.683-.398-.946a1.294 1.294 0 00-.941-.393H1.339c-.43 0-.76.145-.992.435C.116 2.332 0 2.695 0 3.13c0 .352.154.733.46 1.143.307.41.634.732.98.967z"/><path d="M14.163 6.135a174.087 174.087 0 00-4.169 2.888c-.318.235-.576.417-.774.549a4.778 4.778 0 01-.79.401c-.33.137-.637.205-.921.205h-.017a2.41 2.41 0 01-.921-.205 4.78 4.78 0 01-.791-.401 19.815 19.815 0 01-.774-.549c-.754-.552-2.14-1.515-4.16-2.888A4.434 4.434 0 010 5.407v6.646c0 .369.131.684.393.946.263.263.578.394.946.394h12.322c.368 0 .683-.131.946-.394a1.29 1.29 0 00.393-.946V5.407c-.24.268-.519.51-.837.728z"/></g><defs><clipPath id="ara"><path d="M0 0h15v15H0z"/></clipPath></defs></svg><svg viewBox="0 0 13 13" id="facebook" xmlns="http://www.w3.org/2000/svg"><path d="M3.426 6.924h1.425v5.866c0 .116.094.21.21.21h2.416a.21.21 0 00.21-.21V6.951h1.638a.21.21 0 00.208-.185l.25-2.16a.21.21 0 00-.209-.234H7.687V3.018c0-.408.22-.615.653-.615h1.234a.21.21 0 00.21-.21V.212a.21.21 0 00-.21-.21h-1.7L7.796 0c-.295 0-1.32.058-2.13.803-.898.826-.773 1.815-.744 1.986v1.583H3.426a.21.21 0 00-.21.21v2.132c0 .116.095.21.21.21z"/></svg><svg viewBox="0 0 13 13" id="facebook1" xmlns="http://www.w3.org/2000/svg"><path d="M3.426 6.924h1.425v5.866c0 .116.094.21.21.21h2.416a.21.21 0 00.21-.21V6.951h1.638a.21.21 0 00.208-.185l.25-2.16a.21.21 0 00-.209-.234H7.687V3.018c0-.408.22-.615.653-.615h1.234a.21.21 0 00.21-.21V.212a.21.21 0 00-.21-.21h-1.7L7.796 0c-.295 0-1.32.058-2.13.803-.898.826-.773 1.815-.744 1.986v1.583H3.426a.21.21 0 00-.21.21v2.132c0 .116.095.21.21.21z"/></svg><svg viewBox="0 0 45 25" id="fitness" xmlns="http://www.w3.org/2000/svg"><path d="M44.261 9.201h-2.536v-3.42a.734.734 0 00-.729-.73h-4.11v-3.43a.734.734 0 00-.729-.728h-4.839a.734.734 0 00-.729.729V9.2H14.276V1.62a.734.734 0 00-.73-.728H8.708a.734.734 0 00-.73.729v3.42h-4.11a.734.734 0 00-.728.729v3.42H.729A.734.734 0 000 9.92v5.033c0 .398.33.728.729.728h2.42v3.547c0 .399.33.729.728.729h4.11v3.42c0 .399.33.73.73.73h4.838c.399 0 .73-.331.73-.73v-7.705h16.314v7.705c0 .399.33.73.729.73h4.84a.734.734 0 00.728-.73v-3.42h4.11c.399 0 .729-.33.729-.729v-3.547h2.536c.399 0 .729-.33.729-.728V9.92a.74.74 0 00-.739-.719zM3.148 14.235h-1.69v-3.576h1.69v3.575zm4.84 4.275H4.605v-12h3.381v12zm4.829 4.15H9.435V2.35h3.382v20.31zm17.773-8.425H14.274v-3.576H30.59v3.575zm4.839 8.424h-3.382V2.35h3.382v20.31zm4.839-4.149h-3.382v-12h3.382v12zm3.265-4.285h-1.808v-3.566h1.808v3.566z"/></svg><svg viewBox="0 0 51 51" id="hazelnut" xmlns="http://www.w3.org/2000/svg"><g clip-path="url(#ava)"><path d="M41.911 8.967C33.6.657 24.123-1.996 15.218 1.506l-1.148.452.671 1.037c.31.478.62.92.93 1.345-2.318 1.172-4.549 2.819-6.647 4.917-4.437 4.437-7.57 11.995-8.596 20.74-.71 6.05-.242 11.466 1.178 14.904.267.93.683 1.7 1.263 2.266.035.035.08.049.118.077.048.056.096.112.145.165l.033.042c.01.01.012.022.022.032l.017.016.007.008c.003.004.007.005.01.007l.017.015c.013.013.025.03.039.043.083.087.193.162.283.244.019.015.035.032.053.046 2.212 1.986 6.315 3.103 11.675 3.137l.237.001c8.465 0 19.744-2.818 26.085-9.158 2.157-2.158 3.841-4.466 5.022-6.875.445.294.909.588 1.403.881l1.036.614.424-1.128c3.308-8.805.615-18.17-7.584-26.367zm-1.73 31.447c-5.989 5.99-16.842 8.605-24.88 8.566a30.666 30.666 0 01-3.836-.26c5.532-1.097 12.398-4.662 15.567-9.835a1.008 1.008 0 10-1.72-1.055C22.27 42.794 14.934 46.38 9.6 46.978c-2.316.256-4.099-.06-4.93-.872-.015-.014-.027-.033-.04-.047-.579-1.232 2.783-8.57 7.607-12.148a1.009 1.009 0 00-1.203-1.62c-3.298 2.448-6.377 6.96-7.732 10.404a12.56 12.56 0 01.072-1.94c.599-5.336 4.184-12.672 9.148-15.712a1.008 1.008 0 10-1.055-1.72c-4.53 2.774-7.828 8.386-9.315 13.454a43.064 43.064 0 01.28-6.544c.96-8.18 3.957-15.488 8.018-19.548 2.056-2.056 4.237-3.641 6.49-4.722 3.19 3.725 6.215 4.93 8.153 5.292-.22.307-.406.608-.6.912-.102.16-.22.321-.314.48-.126.21-.227.415-.342.624-.138.249-.287.5-.41.745-.056.114-.097.225-.15.337-.157.335-.315.67-.445.998-.015.038-.025.074-.039.113-2.2 5.639-.562 10.135-.102 11.196l.159.367.366.158c.985.426 4.933 1.877 10.01.316h.004c.367-.114.741-.25 1.119-.396.058-.023.116-.038.174-.061.287-.114.58-.256.873-.39.155-.071.306-.129.462-.207.23-.114.465-.254.698-.381.224-.123.445-.232.671-.368.163-.099.331-.22.496-.327.297-.19.594-.373.896-.588.392 2.11 1.792 5.504 6.346 8.997-1.088 2.314-2.693 4.543-4.785 6.634zm7.82-6.957c-.3-.194-.565-.387-.841-.58l-.352-.253c-6.825-4.93-6.33-9.42-6.296-9.665l.457-2.716-.017.014-2.091 1.776c-6.661 5.659-12.799 4.048-14.467 3.446a10.807 10.807 0 01-.39-1.383 13.192 13.192 0 01-.286-3.043c.057-2.713.939-6.293 4.122-10.04l1.774-2.086-2.617.423-.082.012a1.103 1.103 0 01-.084.01l-.05.003-.08.005c-.895.034-4.557-.168-8.677-5.294l-.289-.358c-.194-.252-.387-.495-.582-.77 7.764-2.5 16 .107 23.329 7.438 7.24 7.235 9.88 15.377 7.52 23.06z"/></g><defs><clipPath id="ava"><path d="M0 0h51v51H0z"/></clipPath></defs></svg><svg viewBox="0 0 16 16" id="home" xmlns="http://www.w3.org/2000/svg"><path d="M15.8 7.812a.763.763 0 00-.063-1.091L8.587.464a.891.891 0 00-1.163.013L.249 7.054a.759.759 0 00-.035 1.09l.18.188c.299.31.781.347 1.077.082l.536-.48v7.03c0 .432.35.78.78.78h2.797a.78.78 0 00.781-.78v-4.918h3.567v4.918c-.006.431.303.78.734.78h2.963a.78.78 0 00.781-.78v-6.93l.33.29c.183.16.566.031.856-.288l.204-.224z"/></svg><svg viewBox="0 0 502.664 502.664" id="icon" xmlns="http://www.w3.org/2000/svg"><path d="M153.821 358.226L0 274.337v-46.463l153.821-83.414v54.574L46.636 250.523l107.185 53.431v54.272zm26.273 29.358L282.103 115.08h32.227L212.084 387.584h-31.99zm168.749-29.358v-54.272l107.164-52.999-107.164-52.59v-53.927l153.821 83.522v46.183l-153.821 84.083z"/></svg><svg viewBox="0 0 13 13" id="instagram" xmlns="http://www.w3.org/2000/svg"><path d="M9.487 0H3.513A3.517 3.517 0 000 3.513v5.974A3.517 3.517 0 003.513 13h5.974A3.517 3.517 0 0013 9.487V3.513A3.517 3.517 0 009.487 0zm2.463 9.487a2.465 2.465 0 01-2.463 2.463H3.513A2.465 2.465 0 011.05 9.487V3.513A2.465 2.465 0 013.513 1.05h5.974a2.465 2.465 0 012.463 2.463v5.974z"/><path d="M9.41 6.047a2.895 2.895 0 00-.823-1.634 2.913 2.913 0 00-4.403.325 2.896 2.896 0 00-.542 2.164c.115.77.522 1.45 1.147 1.913a2.893 2.893 0 002.165.543A2.896 2.896 0 008.867 8.21a2.896 2.896 0 00.543-2.164zM6.8 8.319a1.852 1.852 0 01-1.385-.347c-.4-.297-.66-.732-.734-1.224-.073-.493.05-.985.347-1.385A1.853 1.853 0 016.8 4.63 1.85 1.85 0 018.37 6.2 1.867 1.867 0 016.8 8.32zm3.358-5.477a.529.529 0 00-.743 0 .528.528 0 000 .743.529.529 0 00.743 0 .529.529 0 000-.743z"/></svg><svg viewBox="0 0 13 13" id="instagram1" xmlns="http://www.w3.org/2000/svg"><g clip-path="url(#aza)"><path d="M9.487 0H3.513A3.517 3.517 0 000 3.513v5.974A3.517 3.517 0 003.513 13h5.974A3.517 3.517 0 0013 9.487V3.513A3.517 3.517 0 009.487 0zm2.463 9.487a2.465 2.465 0 01-2.463 2.463H3.513A2.465 2.465 0 011.05 9.487V3.513A2.465 2.465 0 013.513 1.05h5.974a2.465 2.465 0 012.463 2.463v5.974z"/><path d="M9.41 6.047a2.895 2.895 0 00-.823-1.634 2.913 2.913 0 00-4.403.325 2.896 2.896 0 00-.542 2.164c.115.77.522 1.45 1.147 1.914a2.893 2.893 0 002.165.542A2.896 2.896 0 008.867 8.21a2.896 2.896 0 00.543-2.164zM6.8 8.319a1.852 1.852 0 01-1.385-.347c-.4-.297-.66-.732-.734-1.224-.073-.493.05-.985.347-1.385A1.853 1.853 0 016.8 4.63 1.85 1.85 0 018.37 6.2 1.867 1.867 0 016.8 8.32zm3.358-5.477a.529.529 0 00-.743 0 .529.529 0 000 .743.529.529 0 00.743 0 .529.529 0 000-.743z"/></g><defs><clipPath id="aza"><path d="M0 0h13v13H0z"/></clipPath></defs></svg><svg viewBox="0 0 23 23" id="left__catalog" xmlns="http://www.w3.org/2000/svg"><path d="M9.583 21.083l1.342-1.341-7.283-7.284H23v-1.916H3.642l7.283-7.284-1.342-1.341L0 11.5l9.583 9.583z"/></svg><svg viewBox="0 0 34 34" id="left_arrow" xmlns="http://www.w3.org/2000/svg"><path d="M14.167 8.834l1.283 1.283-6.967 6.966H27v1.834H8.483l6.967 6.966-1.283 1.284L5 18l9.167-9.166z"/></svg><svg viewBox="0 0 19 19" id="locked" xmlns="http://www.w3.org/2000/svg"><path d="M15.13 7.077V5.102C15.13 2.289 12.604 0 9.5 0S3.87 2.289 3.87 5.102v1.975A2.546 2.546 0 001.76 9.58v6.876A2.546 2.546 0 004.303 19h10.395a2.546 2.546 0 002.543-2.544V9.581a2.546 2.546 0 00-2.11-2.504zM4.575 5.102C4.575 2.677 6.785.704 9.5.704s4.925 1.973 4.925 4.398v1.935h-9.85V5.102zm6.333 8.268c0 .777-.631 1.408-1.407 1.408a1.409 1.409 0 01-1.408-1.408v-2.11a1.409 1.409 0 012.815 0v2.11z"/></svg><svg viewBox="0 0 45 45" id="lorry" xmlns="http://www.w3.org/2000/svg"><g clip-path="url(#bda)"><path d="M10.5 30.75a2.25 2.25 0 100 4.5 2.25 2.25 0 000-4.5zm0 3a.75.75 0 110-1.5.75.75 0 010 1.5zm24-3a2.25 2.25 0 100 4.5 2.25 2.25 0 000-4.5zm0 3a.75.75 0 110-1.5.75.75 0 010 1.5z"/><path d="M44.428 20.074l-5.166-5.818a2.25 2.25 0 00-1.687-.756H30.75V9a2.252 2.252 0 00-2.25-2.25H2.25A2.252 2.252 0 000 9v19.5a.75.75 0 00.75.75h.75v2.25a2.252 2.252 0 002.25 2.25h1.56a5.243 5.243 0 0010.38 0h13.62a5.243 5.243 0 0010.38 0h3.06A2.252 2.252 0 0045 31.5v-9.93c0-.552-.204-1.084-.572-1.496zM1.5 27.75V9a.75.75 0 01.75-.75H28.5a.75.75 0 01.75.75v18.75H1.5zm3.81 4.5H3.75A.75.75 0 013 31.5v-2.25h3.833a5.236 5.236 0 00-1.523 3zm5.19 4.5a3.75 3.75 0 110-7.5 3.75 3.75 0 010 7.5zm7.5-4.5h-2.31a5.236 5.236 0 00-1.523-3H18v3zm6.75 0H19.5v-3h5.25v3zm4.56 0h-3.06v-3h4.583a5.237 5.237 0 00-1.523 3zm5.19 4.5a3.75 3.75 0 110-7.5 3.75 3.75 0 010 7.5zm9-5.25a.75.75 0 01-.75.75h-3.06a5.254 5.254 0 00-5.19-4.5h-3.75V15h3v7.5A2.252 2.252 0 0036 24.75h7.5v6.75zm0-8.25H36a.75.75 0 01-.75-.75V15h2.325c.215-.001.42.09.564.25l5.169 5.821a.752.752 0 01.192.499v1.68z"/><g clip-path="url(#bdb)"><path d="M19.623 12.857a91.945 91.945 0 01-1.041-1.319.292.292 0 00-.287-.107s-1.262.25-1.65.311c-3.242.516-5.34 2.163-6.415 5.034-1.499 4.003 1.47 7.09 3.316 7.78 1.846.69 6.111.313 7.61-3.69 1.07-2.858.568-5.478-1.533-8.009zM13.751 24.01c-1.661-.621-4.33-3.407-2.975-7.028.995-2.658 2.944-4.183 5.961-4.663.303-.048 1.13-.209 1.495-.28.228.293.747.956.942 1.192 1.957 2.355 2.426 4.786 1.436 7.432-1.384 3.695-5.412 3.89-6.86 3.348z"/><path d="M20.37 19.636a2.03 2.03 0 00-.457-2.137 2.044 2.044 0 00-1.116-2.812 1.751 1.751 0 00-.285-.08c-.111-.02-.237-.095-.263-.238-.09-.497-.227-1.08-.227-1.08-.044-.19-.296-.284-.455-.17-.019.014-.47.34-.844.668-.116.102-.268.073-.372.013a1.839 1.839 0 00-.286-.136 2.044 2.044 0 00-2.688 1.388 2.03 2.03 0 00-1.748 1.312c-.19.508-.165 1.07.065 1.566a1.869 1.869 0 00-.132.277 2.037 2.037 0 00.486 2.167 2.033 2.033 0 001.292 2.236c.283.106.582.145.89.116.215.224.466.392.749.498a2.034 2.034 0 002.442-.839 2.037 2.037 0 001.79-1.315c.034-.092.062-.19.082-.295.5-.223.887-.63 1.077-1.14zm-6.23 2.5a1.41 1.41 0 01-.596-.072c-.693-.26-1.077-1-.894-1.723.008-.029 0-.057-.002-.086.015-.022.032-.042.042-.068.058-.156.141-.3.247-.425a.292.292 0 10-.448-.375 2.055 2.055 0 00-.224.337 1.448 1.448 0 01-.157-1.312c.037-.098.089-.195.163-.304a.291.291 0 00.011-.308 1.452 1.452 0 01-.107-1.231 1.444 1.444 0 011.135-.918c.03.798.53 1.54 1.324 1.838a.292.292 0 10.204-.547 1.46 1.46 0 011.023-2.731c.069.026.134.057.195.093.346.202.754.174 1.043-.073l-2.959 7.905zm4.795-1.846a.29.29 0 00-.193.24 1.472 1.472 0 01-.078.336 1.448 1.448 0 01-.978.886 2.044 2.044 0 00-.676-2.003.291.291 0 10-.376.447c.471.396.642 1.05.438 1.6l-.084.17a1.452 1.452 0 01-1.805.711 1.41 1.41 0 01-.496-.337l2.973-7.943.015.077a.894.894 0 00.727.706c.064.012.127.03.19.053a1.46 1.46 0 01.855 1.877 1.446 1.446 0 01-.145.281 1.449 1.449 0 01-.551.503.292.292 0 10.267.519c.21-.108.393-.253.551-.421.335.397.44.943.255 1.44-.15.4-.474.713-.89.858z"/></g></g><defs><clipPath id="bda"><path d="M0 0h45v45H0z"/></clipPath><clipPath id="bdb"><path transform="rotate(20.521 -18.884 37.359)" d="M0 0h14v14H0z"/></clipPath></defs></svg><svg viewBox="0 0 19 17" id="menu_" xmlns="http://www.w3.org/2000/svg"><g clip-path="url(#bea)"><path d="M19 2.6H0V0h19v2.6zM0 7.181h19v2.617H0V7.181zm0 7.202h13.04c-.381.994-.695 1.806-1.006 2.617H0v-2.617z"/></g><defs><clipPath id="bea"><path d="M0 0h19v17H0z"/></clipPath></defs></svg><svg viewBox="0 0 12 18" id="package" xmlns="http://www.w3.org/2000/svg"><path d="M11.43 3.645H8.316V2.387C8.317 1.07 7.278 0 6 0S3.686 1.07 3.686 2.387v1.258H.57L0 17.095h12l-.57-13.45zM4.206 2.386c0-1.02.805-1.85 1.795-1.85.988 0 1.793.831 1.793 1.85v1.259H4.207V2.386z"/></svg><svg viewBox="0 0 26 26" id="quotes" xmlns="http://www.w3.org/2000/svg"><path d="M5.707 10.565a5.682 5.682 0 11-5.682 5.682L0 15.435C0 9.16 5.088 4.071 11.364 4.071v3.247a8.064 8.064 0 00-5.74 2.377 8.24 8.24 0 00-.807.94c.29-.046.587-.07.89-.07zm14.611 0a5.682 5.682 0 11-5.682 5.682l-.025-.812c0-6.276 5.087-11.364 11.364-11.364v3.247a8.064 8.064 0 00-5.74 2.377c-.295.296-.564.61-.807.94.29-.046.587-.07.89-.07z"/></svg><svg viewBox="0 0 14 14" id="right__arrow" xmlns="http://www.w3.org/2000/svg"><path d="M5.833 12.834l.817-.817-4.433-4.433H14V6.417H2.217L6.65 1.984l-.817-.817L0 7l5.833 5.834z"/></svg><svg viewBox="0 0 23 23" id="right__catalog" xmlns="http://www.w3.org/2000/svg"><path d="M13.417 21.083l-1.342-1.341 7.283-7.284H0v-1.916h19.358l-7.283-7.284 1.342-1.341L23 11.5l-9.583 9.583z"/></svg><svg viewBox="0 0 34 34" id="right_arrow" xmlns="http://www.w3.org/2000/svg"><path d="M19.833 8.834l-1.283 1.283 6.967 6.966H7v1.834h18.517l-6.967 6.966 1.283 1.284L29 18l-9.167-9.166z"/></svg><svg viewBox="0 0 18 18" id="scale" xmlns="http://www.w3.org/2000/svg"><path d="M16.923 16.107c-.13-.445-2.25-8.38-2.538-9.46-.287-1.08-1.038-1.369-1.884-1.369H9.743v-.997C14.872 3.804 16.24 0 16.24 0H1.42s1.147 4.018 6.63 4.303v.975H5.5c-.846 0-1.596.288-1.884 1.368a2534.49 2534.49 0 01-2.538 9.46c-.163.557-.112 1.284 1.021 1.284h.81V18h12.045v-.61h.947c1.135 0 1.186-.727 1.023-1.284zM9 6.309A5.025 5.025 0 119 16.36 5.025 5.025 0 119 6.309z"/><path d="M6.115 9.123l-.516-.368-.153.214.509.36c.047-.072.105-.137.16-.206zm1.418-1.127l-.281-.568-.236.117.287.577c.077-.041.15-.09.23-.126zM5.35 11.335c0-.03.008-.057.01-.086h-.64v.262h.648c-.002-.06-.018-.116-.018-.176zm7.594-1.925l-.125-.228-.658.36c.042.074.087.151.125.229l.659-.36zm-1.526-1.69l-.225-.134-.364.606c.075.045.155.08.23.13l.359-.601zm-2.221-.015V7.03h-.263v.66c.022 0 .044-.006.066-.006.068 0 .13.016.197.02zm1.919 7.511l-.35-.706c-.076.043-.152.09-.23.126l.344.697.236-.117zm1.57-1.425l-.64-.454c-.046.074-.106.139-.158.207l.645.46.153-.213zm-.036-2.456c0 .06-.014.116-.016.175h.78v-.262h-.771c0 .03.008.057.008.087zm-3.716 3.643v.748h.263v-.762c-.067.004-.13.02-.197.02-.022 0-.044-.006-.066-.006zM5.781 13.02l-.595.324.126.23.593-.323c-.045-.076-.083-.153-.124-.231zm1.531 1.532c-.079-.041-.157-.08-.232-.126l-.366.61.225.135.373-.619zm.149-.662l.202.114 1.265-2.115c.051.011.1.031.154.031a.803.803 0 10-.803-.803c0 .254.125.47.309.619L7.46 13.89zm1.621-3.003a.23.23 0 11.002.46.23.23 0 01-.002-.46z"/></svg><svg viewBox="0 0 22 22" id="settings" xmlns="http://www.w3.org/2000/svg"><g clip-path="url(#bla)"><path d="M7.008 8.918c-1.171 0-2.17.72-2.54 1.721H0v1.722h4.467c.37 1.001 1.37 1.721 2.54 1.721 1.172 0 2.17-.72 2.542-1.721H23v-1.722H9.549c-.371-1.001-1.37-1.721-2.541-1.721zm0 3.443c-.496 0-.899-.386-.899-.861s.403-.86.899-.86c.495 0 .898.385.898.86s-.403.86-.898.86zm12.064-9.64C18.702 1.72 17.702 1 16.532 1c-1.172 0-2.17.72-2.541 1.721H0v1.722h13.99c.371 1.001 1.37 1.72 2.541 1.72 1.172 0 2.17-.719 2.541-1.72H23V2.72h-3.928zm-2.54 1.722c-.496 0-.9-.386-.9-.861s.404-.86.9-.86c.495 0 .898.385.898.86 0 .474-.403.86-.899.86zm-1.708 12.393c-1.171 0-2.17.72-2.54 1.721H0v1.722h12.284c.37 1.001 1.369 1.721 2.54 1.721s2.17-.72 2.54-1.721H23v-1.722h-5.635c-.37-1.001-1.37-1.72-2.54-1.72zm0 3.443c-.495 0-.898-.386-.898-.861 0-.474.403-.86.898-.86.496 0 .899.386.899.86 0 .475-.403.86-.899.86z"/></g><defs><clipPath id="bla"><path d="M0 0h22v22H0z"/></clipPath></defs></svg><svg viewBox="0 0 37 37" id="shop" xmlns="http://www.w3.org/2000/svg"><g clip-path="url(#bma)"><path d="M36.387 17.771a.656.656 0 00-.002-.042l-.002-.013a.67.67 0 00-.006-.039l-.002-.015a.475.475 0 00-.026-.083l-.008-.021a.564.564 0 00-.025-.049l-.006-.01-2.09-3.485v-2.631c0-.3-.243-.542-.543-.542H22.921a6.305 6.305 0 001.903-4.517A6.33 6.33 0 0018.5 0a6.33 6.33 0 00-6.323 6.324c0 1.768.73 3.368 1.903 4.517H3.324c-.3 0-.542.242-.542.542v2.63L.69 17.499l-.005.008a.635.635 0 00-.016.03l-.009.02a.551.551 0 00-.012.028l-.008.022a.621.621 0 00-.019.076l-.005.031a.499.499 0 00-.003.054v.039A2.708 2.708 0 005.491 19.4a2.708 2.708 0 004.337 0 2.707 2.707 0 004.336 0 2.708 2.708 0 004.336 0 2.708 2.708 0 004.336 0 2.708 2.708 0 004.337 0 2.708 2.708 0 004.336 0 2.708 2.708 0 004.877-1.592v-.016l.001-.016v-.006zM13.26 6.324c0-2.89 2.35-5.24 5.24-5.24a5.246 5.246 0 015.239 5.24c0 2.889-2.35 5.24-5.24 5.24a5.246 5.246 0 01-5.24-5.24zm-9.938 13.08a1.628 1.628 0 01-1.532-1.085h3.065a1.629 1.629 0 01-1.533 1.084zm1.818-2.169H2.113l1.518-2.529h2.648l-1.138 2.529zm2.519 2.168c-.707 0-1.31-.453-1.533-1.084h3.066a1.629 1.629 0 01-1.533 1.084zm1.765-2.168H6.33l1.138-2.529h2.715l-.758 2.529zm2.57 2.168a1.628 1.628 0 01-1.532-1.084h3.066a1.629 1.629 0 01-1.533 1.084zm1.702-2.168h-3.14l.758-2.529h2.762l-.38 2.529zm2.635 2.168a1.628 1.628 0 01-1.533-1.084h3.066a1.629 1.629 0 01-1.533 1.084zm1.626-2.168h-3.165l.38-2.529h2.785v2.529zm2.71 2.168a1.627 1.627 0 01-1.532-1.084H22.2a1.629 1.629 0 01-1.533 1.084zm-1.626-2.168v-2.529h2.786l.379 2.529h-3.165zm-8.132-3.613H3.867v-1.697h11.702a6.286 6.286 0 002.932.722 6.284 6.284 0 002.933-.722h11.702v1.697H10.911zm12.014 1.084h2.761l.759 2.529h-3.14l-.38-2.529zm2.08 4.697a1.627 1.627 0 01-1.532-1.084h3.065a1.629 1.629 0 01-1.532 1.084zm1.813-4.697h2.715l1.139 2.529h-3.095l-.759-2.529zm2.524 4.697a1.629 1.629 0 01-1.533-1.084h3.066a1.629 1.629 0 01-1.533 1.084zm1.38-4.697h2.649l1.518 2.529h-3.029l-1.138-2.529zm2.956 4.697a1.629 1.629 0 01-1.533-1.084h3.066a1.629 1.629 0 01-1.533 1.084zm.001 2.24c-.3 0-.542.242-.542.542v13.73h-1.807V22.727a.542.542 0 00-.542-.542H23.56c-.3 0-.542.243-.542.542v13.19H21.21V34.29a.54.54 0 00-.542-.541h-.18v-.181a.542.542 0 10-1.084 0v.18h-1.085v-.18a.542.542 0 10-1.084 0v.18h-1.084v-.18a.542.542 0 10-1.084 0v.18h-1.084v-.18a.542.542 0 10-1.084 0v.18h-1.084v-.18a.542.542 0 10-1.084 0v.18H9.647v-.18a.542.542 0 10-1.084 0v.18H7.48v-.18a.542.542 0 10-1.084 0v.18h-.181c-.3 0-.542.243-.542.542v1.627H3.865V22.185a.542.542 0 10-1.084 0v14.273c0 .3.243.542.542.542h30.354c.3 0 .542-.243.542-.542V22.185c0-.3-.243-.542-.542-.542zm-13.55 14.273H6.755v-1.084h13.37v1.084zm10.117 0h-6.143V23.268h6.143v12.648z"/><path d="M20.668 22.184H6.214c-.3 0-.542.243-.542.542v7.95c0 .3.243.542.542.542h14.454c.3 0 .542-.243.542-.542v-7.95c0-.3-.243-.542-.542-.542zm-.542 7.95H6.756v-6.866h13.37v6.866zm8.492-.723h-2.89a.542.542 0 100 1.084h2.89a.542.542 0 100-1.084zM21.566 9.13l-.358-4.297a.542.542 0 00-.54-.497h-.542v-.542c0-.897-.73-1.626-1.626-1.626-.896 0-1.626.73-1.626 1.626v.542h-.542a.542.542 0 00-.54.488L15.36 9.16a.542.542 0 00.54.596h5.132a.542.542 0 00.535-.627zm-3.608-5.336a.543.543 0 011.084 0v.542h-1.084v-.542zm-1.46 4.878l.325-3.252h3.346l.271 3.252h-3.943z"/></g><defs><clipPath id="bma"><path d="M0 0h37v37H0z"/></clipPath></defs></svg><svg viewBox="0 0 37 37" id="supermarket" xmlns="http://www.w3.org/2000/svg"><g clip-path="url(#bna)"><path d="M17.267 10.483a1.83 1.83 0 00-.113-.616h2.693a1.827 1.827 0 00-.113.616 1.85 1.85 0 003.7 0 1.83 1.83 0 00-.114-.616h.73a.617.617 0 00.617-.555l.617-6.167a.618.618 0 00-.617-.678H12.604L12.329.529a.617.617 0 00-.61-.529h-1.85v1.233h1.314l1.158 8.105a.617.617 0 00.61.529h.73a1.827 1.827 0 00-.113.616 1.85 1.85 0 003.7 0zm4.934 0a.617.617 0 11-1.234 0 .617.617 0 011.234 0zM12.78 3.7h11.208l-.493 4.933h-10.01L12.78 3.7zm2.636 7.4a.617.617 0 110-1.233.617.617 0 010 1.233z"/><path d="M36.533 17.285l-9.4-2.35V12.95a.617.617 0 00-.616-.617H10.483a.617.617 0 00-.616.617v1.985l-9.4 2.35a.617.617 0 00-.467.598v18.5c0 .34.276.617.617.617h35.766c.34 0 .617-.276.617-.617v-18.5a.617.617 0 00-.467-.598zm-35.3 1.08l8.634-2.159v19.56H1.233v-17.4zm9.867-4.798h14.8v22.2h-3.083v-5.55a.617.617 0 00-.617-.617h-7.4a.617.617 0 00-.617.617v5.55H11.1v-22.2zm4.317 17.266h2.466v4.934h-2.466v-4.934zm3.7 4.934v-4.934h2.466v4.934h-2.466zm16.65 0h-8.634v-19.56l8.634 2.158v17.402z"/><path d="M17.267 28.367c.34 0 .617-.277.617-.617v-2.467a.617.617 0 00-.617-.616H12.95a.617.617 0 00-.616.616v2.467c0 .34.276.617.616.617h4.317zm-3.7-2.467h3.083v1.233h-3.083V25.9zm6.167 2.467h4.316a.617.617 0 00.617-.617v-2.467a.617.617 0 00-.617-.616h-4.316a.617.617 0 00-.617.616v2.467c0 .34.276.617.617.617zm.616-2.467h3.084v1.233H20.35V25.9zm-7.4-2.467h4.317c.34 0 .617-.276.617-.616V20.35a.617.617 0 00-.617-.617H12.95a.617.617 0 00-.616.617v2.467c0 .34.276.616.616.616zm.617-2.466h3.083V22.2h-3.083v-1.233zm6.167 2.466h4.316a.616.616 0 00.617-.616V20.35a.617.617 0 00-.617-.617h-4.316a.617.617 0 00-.617.617v2.467c0 .34.276.616.617.616zm.616-2.466h3.084V22.2H20.35v-1.233zm-7.4-2.467h4.317c.34 0 .617-.276.617-.617v-2.466a.617.617 0 00-.617-.617H12.95a.617.617 0 00-.616.617v2.466c0 .34.276.617.616.617zm.617-2.467h3.083v1.234h-3.083v-1.234zm6.167 2.467h4.316a.617.617 0 00.617-.617v-2.466a.617.617 0 00-.617-.617h-4.316a.617.617 0 00-.617.617v2.466c0 .34.276.617.617.617zm.616-2.467h3.084v1.234H20.35v-1.234zm8.634 12.334h4.933c.34 0 .617-.277.617-.617v-2.467a.617.617 0 00-.617-.616h-4.933a.617.617 0 00-.617.616v2.467c0 .34.276.617.617.617zM29.6 25.9h3.7v1.233h-3.7V25.9zm-.616-2.467h4.933c.34 0 .617-.276.617-.616V20.35a.617.617 0 00-.617-.617h-4.933a.617.617 0 00-.617.617v2.467c0 .34.276.616.617.616zm.616-2.466h3.7V22.2h-3.7v-1.233zm-.616 13.566h4.933c.34 0 .617-.276.617-.616v-3.7a.617.617 0 00-.617-.617h-4.933a.617.617 0 00-.617.617v3.7c0 .34.276.616.617.616zm.616-3.7h3.7V33.3h-3.7v-2.467zM8.016 24.667H3.083a.617.617 0 00-.617.616v2.467c0 .34.276.617.617.617h4.933c.34 0 .617-.277.617-.617v-2.467a.617.617 0 00-.617-.616zM7.4 27.133H3.7V25.9h3.7v1.233zm.616-7.4H3.083a.617.617 0 00-.617.617v2.467c0 .34.276.616.617.616h4.933c.34 0 .617-.276.617-.616V20.35a.617.617 0 00-.617-.617zM7.4 22.2H3.7v-1.233h3.7V22.2zm.616 7.4H3.083a.617.617 0 00-.617.617v3.7c0 .34.276.616.617.616h4.933c.34 0 .617-.276.617-.616v-3.7a.617.617 0 00-.617-.617zM7.4 33.3H3.7v-2.467h3.7V33.3z"/></g><defs><clipPath id="bna"><path d="M0 0h37v37H0z"/></clipPath></defs></svg><svg viewBox="0 0 10 8" id="table__arrow-down" xmlns="http://www.w3.org/2000/svg"><path fill-rule="evenodd" clip-rule="evenodd" d="M4.994 5.432L1.223 1.6 0 2.945 4.994 8 10 2.945 8.777 1.6 4.994 5.432z"/></svg><svg viewBox="0 0 14 14" id="tel" xmlns="http://www.w3.org/2000/svg"><g clip-path="url(#bpa)"><path d="M13.971 10.847c-.04-.119-.292-.295-.756-.526a23.334 23.334 0 00-.536-.299 49.776 49.776 0 01-.632-.348 23.028 23.028 0 01-.532-.308c-.026-.02-.109-.078-.248-.174a2.8 2.8 0 00-.353-.214.651.651 0 00-.284-.07c-.132 0-.298.095-.497.284a4.842 4.842 0 00-.546.617 6.004 6.004 0 01-.527.616c-.186.189-.338.283-.458.283a.677.677 0 01-.223-.05 2.307 2.307 0 01-.205-.084 3.738 3.738 0 01-.238-.139 5.827 5.827 0 00-.189-.114A10.45 10.45 0 015.41 8.59a10.443 10.443 0 01-1.73-2.337 5.762 5.762 0 00-.114-.19 3.588 3.588 0 01-.14-.238 2.154 2.154 0 01-.084-.204.673.673 0 01-.05-.223c0-.12.095-.272.284-.458.189-.185.395-.361.617-.527.222-.165.427-.348.616-.546.189-.2.283-.365.283-.497a.65.65 0 00-.07-.284 2.764 2.764 0 00-.213-.353 10.093 10.093 0 00-.174-.248 19.88 19.88 0 01-.308-.532c-.106-.19-.222-.4-.348-.632-.126-.232-.226-.41-.299-.537C3.45.322 3.273.07 3.154.03a.557.557 0 00-.21-.03 3.24 3.24 0 00-.7.1 3.938 3.938 0 00-.681.208C1.23.448.88.852.509 1.521c-.338.623-.507 1.24-.507 1.85 0 .178.011.352.034.521.024.17.065.36.125.572.06.212.107.37.144.472.036.103.104.287.204.552.099.265.159.428.179.487.232.65.507 1.23.825 1.74.523.849 1.238 1.726 2.142 2.63.905.905 1.782 1.62 2.63 2.143.51.318 1.09.594 1.74.826.06.02.222.079.487.179l.552.204c.103.036.26.084.472.144.213.06.403.101.572.124.17.023.343.035.522.035.61 0 1.227-.17 1.85-.507.669-.371 1.073-.723 1.212-1.054a3.92 3.92 0 00.21-.681 3.3 3.3 0 00.099-.701.553.553 0 00-.03-.21z"/></g><defs><clipPath id="bpa"><path d="M0 0h14v14H0z"/></clipPath></defs></svg><svg viewBox="0 0 31 31" id="telegram" xmlns="http://www.w3.org/2000/svg"><circle cx="15.5" cy="15.5" r="15.5"/><g clip-path="url(#bqa)"><path d="M18.27 22.261a.554.554 0 01-.31-.095l-3.52-2.388-1.889 1.359a.555.555 0 01-.86-.309l-.948-3.593-3.387-1.295a.554.554 0 01-.007-1.032l12.88-5.125a.555.555 0 01.76.621l-2.174 11.407a.554.554 0 01-.545.45zm-3.522-3.613l3.136 2.127 1.691-8.876-6.11 5.88 1.268.86.015.01zm-2.61-.473l.42 1.591.904-.65-1.184-.804a.552.552 0 01-.14-.137zm-3.06-2.763l2.327.89a.554.554 0 01.338.376l.295 1.118a.555.555 0 01.167-.342l5.821-5.602-8.947 3.56z"/></g><defs><clipPath id="bqa"><path transform="translate(7 9)" d="M0 0h14v14H0z"/></clipPath></defs></svg><svg viewBox="0 0 14 14" id="telephone" xmlns="http://www.w3.org/2000/svg"><g clip-path="url(#bra)"><path d="M13.971 10.847c-.04-.119-.292-.295-.756-.526a23.334 23.334 0 00-.536-.299 49.776 49.776 0 01-.632-.348 23.028 23.028 0 01-.532-.308c-.026-.02-.109-.078-.248-.174a2.8 2.8 0 00-.353-.214.651.651 0 00-.284-.07c-.132 0-.298.095-.497.284a4.842 4.842 0 00-.546.617 6.004 6.004 0 01-.527.616c-.186.189-.338.283-.458.283a.677.677 0 01-.223-.05 2.307 2.307 0 01-.205-.084 3.738 3.738 0 01-.238-.139 5.827 5.827 0 00-.189-.114A10.45 10.45 0 015.41 8.59a10.443 10.443 0 01-1.73-2.337 5.762 5.762 0 00-.114-.19 3.588 3.588 0 01-.14-.238 2.154 2.154 0 01-.084-.204.673.673 0 01-.05-.223c0-.12.095-.272.284-.458.189-.185.395-.361.617-.527.222-.165.427-.348.616-.546.189-.2.283-.365.283-.497a.65.65 0 00-.07-.284 2.764 2.764 0 00-.213-.353 10.093 10.093 0 00-.174-.248 19.88 19.88 0 01-.308-.532c-.106-.19-.222-.4-.348-.632-.126-.232-.226-.41-.299-.537C3.45.322 3.273.07 3.154.03a.557.557 0 00-.21-.03 3.24 3.24 0 00-.7.1 3.938 3.938 0 00-.681.208C1.23.448.88.852.509 1.521c-.338.623-.507 1.24-.507 1.85 0 .178.011.352.034.521.024.17.065.36.125.572.06.212.107.37.144.472.036.103.104.287.204.552.099.265.159.428.179.487.232.65.507 1.23.825 1.74.523.849 1.238 1.726 2.142 2.63.905.905 1.782 1.62 2.63 2.143.51.318 1.09.594 1.74.826.06.02.222.079.487.179l.552.204c.103.036.26.084.472.144.213.06.403.101.572.124.17.023.343.035.522.035.61 0 1.227-.17 1.85-.507.669-.371 1.073-.723 1.212-1.054a3.92 3.92 0 00.21-.681 3.3 3.3 0 00.099-.701.553.553 0 00-.03-.21z"/></g><defs><clipPath id="bra"><path d="M0 0h14v14H0z"/></clipPath></defs></svg><svg viewBox="0 0 12 12" id="tell" xmlns="http://www.w3.org/2000/svg"><path d="M11.976 9.298c-.034-.102-.25-.253-.648-.452a19.76 19.76 0 00-.46-.256 29.366 29.366 0 01-.997-.562 11.136 11.136 0 00-.213-.15 2.395 2.395 0 00-.303-.183.558.558 0 00-.243-.06c-.113.001-.255.082-.426.244a4.15 4.15 0 00-.468.528 5.14 5.14 0 01-.452.529c-.159.162-.29.243-.392.243a.58.58 0 01-.192-.043 1.989 1.989 0 01-.175-.072c-.04-.02-.107-.06-.204-.12a5.283 5.283 0 00-.162-.098 8.956 8.956 0 01-2.003-1.483A8.951 8.951 0 013.155 5.36a4.945 4.945 0 00-.098-.162c-.06-.096-.1-.164-.12-.204a1.848 1.848 0 01-.072-.175.577.577 0 01-.042-.192c0-.102.08-.232.243-.392.162-.159.338-.31.528-.451.19-.142.367-.298.529-.469.161-.17.242-.312.242-.426 0-.08-.02-.16-.06-.243a2.37 2.37 0 00-.182-.302l-.15-.214a18.685 18.685 0 01-.264-.455c-.09-.162-.19-.343-.298-.542a20.284 20.284 0 00-.256-.46C2.956.276 2.805.06 2.704.026A.477.477 0 002.524 0c-.153 0-.353.028-.6.085a3.375 3.375 0 00-.584.18C1.056.382.755.73.437 1.303c-.29.534-.435 1.062-.435 1.585a3.291 3.291 0 00.136.938c.051.181.093.316.124.404.031.088.09.246.175.473.085.228.136.367.153.418a7.72 7.72 0 00.707 1.491c.449.728 1.061 1.48 1.837 2.255.775.775 1.527 1.387 2.254 1.836.437.273.935.509 1.491.708.052.017.19.068.418.153.227.085.385.144.473.175.088.031.223.072.405.124a3.268 3.268 0 00.937.136c.523 0 1.051-.145 1.585-.435.574-.318.92-.619 1.04-.903.063-.142.122-.337.179-.584.057-.247.085-.447.085-.6 0-.08-.008-.14-.025-.18z"/></svg><svg viewBox="0 0 16 19" id="tree" xmlns="http://www.w3.org/2000/svg"><path d="M14.926 5.814c-.387-.298-.665-.766-.617-1.225.173-1.62-.759-3.002-2.265-3.255-.268-.044-.534-.167-.775-.304-.454-.26-.928-.355-1.417-.21-.265.079-.428.044-.638-.159-1.199-1.156-3.077-.743-3.665.826-.168.451-.418.714-.809.885a.686.686 0 00-.245.153c-.195.222-.38.167-.617.06-1.526-.692-3.17.447-3.233 2.21a1.667 1.667 0 01-.234.741c-.454.778-.534 1.558-.23 2.366-.219.583-.028 1.31.513 1.733.592.463 1.276.221 1.8-.227.148-.015.299-.047.453-.097.308-.1.586-.221.845-.087.042.032.084.061.127.088l.034.031.004-.007c.086.05.174.086.265.115.504 1.896 1.587 3.557 3.074 4.734a9.417 9.417 0 01-.92 3.411c-.604.393-1.339.109-1.97-.077-.558-.165-1.102-.226-1.659-.036a.255.255 0 00-.174.237l-.003.008-.127.58c-.04.18.083.305.216.329.02.006.043.01.067.01h10.31a.225.225 0 00.195-.103.274.274 0 00.1-.21v-.402a.268.268 0 00-.18-.255.227.227 0 00-.156-.057H9.879c-.155-.19-.312-.383-.475-.573-.452-.53-.652-1.12-.449-1.832.071-.248.122-.505.151-.762.087-.762.168-1.527.25-2.303a4.218 4.218 0 002.726-1.387c.305 0 .578-.097.806-.26l.091-.03c.497.426 1.264.47 1.842.243.537-.211 1-.783 1.017-1.41a1.637 1.637 0 00-.006-.176c.418-1.145.036-2.59-.906-3.316zm-9.094 3.45l.016-.006c.108-.044.297.006.394.087.137.113.267.237.393.363.003.01.003.02.006.032l.58 2.066c.047.347.076.692.092 1.035-1.001-.877-1.549-2.179-1.481-3.576zm3.756 1.992c.045-.116.09-.231.138-.346h.047c0-.04 0-.08.002-.12.13-.308.27-.61.429-.898a4 4 0 00.636.498 5.05 5.05 0 01-1.252.866z"/></svg><svg viewBox="0 0 19 19" id="unlocked" xmlns="http://www.w3.org/2000/svg"><path d="M15.13 7.077V5.102C15.13 2.289 12.603 0 9.5 0 6.395 0 3.87 2.289 3.87 5.102a.352.352 0 10.704 0C4.574 2.677 6.784.704 9.5.704s4.925 1.973 4.925 4.398v1.935H4.303A2.546 2.546 0 001.76 9.581v6.875A2.546 2.546 0 004.302 19h10.395a2.547 2.547 0 002.543-2.544V9.581a2.546 2.546 0 00-2.11-2.504zm-4.223 6.293c0 .777-.631 1.408-1.407 1.408a1.409 1.409 0 01-1.408-1.408v-2.11a1.409 1.409 0 012.815 0v2.11z"/></svg><svg viewBox="0 0 11 11" id="user" xmlns="http://www.w3.org/2000/svg"><path d="M5.5 5.38c1.223 0 2.215-1.205 2.215-2.69C7.715 1.204 7.389 0 5.5 0 3.611 0 3.286 1.204 3.286 2.69c0 1.485.991 2.69 2.214 2.69zM1.317 9.487c0-.09 0-.026 0 0zm8.366.071c0-.025 0-.172 0 0zm-.005-.18C9.638 6.79 9.3 6.053 6.713 5.586c0 0-.364.464-1.213.464-.848 0-1.212-.464-1.212-.464-2.559.462-2.917 1.188-2.964 3.708-.004.206-.006.217-.007.193v.272S1.934 11 5.5 11c3.567 0 4.183-1.241 4.183-1.241v-.201c0 .014-.002-.014-.005-.18z"/></svg><svg viewBox="0 0 31 31" id="viber" xmlns="http://www.w3.org/2000/svg"><circle cx="15.5" cy="15.5" r="15.5"/><g clip-path="url(#bwa)"><path d="M12.154 24a.344.344 0 01-.344-.344c0-.865-.001-1.732.002-2.598 0-.098-.033-.155-.125-.188-.176-.063-.351-.132-.53-.189-1.066-.336-1.799-1.035-2.313-1.974-.281-.516-.451-1.068-.581-1.635a11.04 11.04 0 01-.259-2.787c.018-.607.068-1.21.162-1.81.073-.472.14-.947.25-1.414.256-1.09.87-1.96 1.793-2.624.567-.406 1.197-.691 1.863-.904a10.822 10.822 0 011.672-.374c.808-.123 1.62-.18 2.436-.154.499.017.999.053 1.496.1a13.6 13.6 0 012.093.356c.659.17 1.286.413 1.862.77 1.002.619 1.624 1.501 1.929 2.607.192.696.319 1.404.384 2.121.07.769.071 1.537.024 2.307-.029.456-.066.91-.146 1.36-.158.876-.424 1.715-.884 2.488-.348.582-.845 1.024-1.445 1.358a6.088 6.088 0 01-1.675.605c-.463.101-.931.161-1.404.198-1.065.08-2.13.113-3.199.14a.168.168 0 00-.103.04c-.641.681-1.327 1.32-2.005 1.965-.19.182-.382.364-.577.542a.142.142 0 01-.092.036l-.284.002zm.418-1.195c-.002.028.034.045.053.024.227-.216.457-.427.68-.647.412-.403.82-.81 1.225-1.22a.94.94 0 01.66-.289c.755-.029 1.511-.052 2.265-.081a14.36 14.36 0 001.852-.173c.597-.101 1.173-.261 1.711-.537.6-.306 1.067-.744 1.372-1.333a7.13 7.13 0 00.705-2.2c.092-.598.127-1.202.14-1.805a12.526 12.526 0 00-.177-2.472 9.003 9.003 0 00-.322-1.322 3.421 3.421 0 00-1.272-1.734c-.495-.354-1.047-.596-1.633-.77-.49-.144-.992-.238-1.497-.314a18.005 18.005 0 00-1.571-.168 13.68 13.68 0 00-2.246.042c-.583.06-1.159.148-1.726.291a6.684 6.684 0 00-1.954.808c-.88.556-1.455 1.326-1.679 2.324-.103.459-.17.927-.243 1.392-.087.568-.135 1.14-.149 1.712-.019.696.022 1.389.141 2.075.084.482.197.958.369 1.418.201.538.484 1.027.908 1.432.296.284.628.515 1.03.644.24.077.474.17.71.262.174.066.334.154.455.297.146.172.193.374.193.593v1.751z"/><path d="M18.42 19.195a1.405 1.405 0 01-.495-.116c-1.206-.496-2.325-1.133-3.33-1.952a11.511 11.511 0 01-2.428-2.735c-.388-.602-.683-1.244-.938-1.906-.05-.126-.116-.248-.142-.379-.119-.616.116-1.095.626-1.458.224-.158.478-.257.749-.31.26-.053.48.034.668.205.37.336.69.713.954 1.132.124.194.237.396.343.6.159.302.103.56-.16.786-.1.085-.207.163-.308.246-.348.288-.427.575-.259.987.25.62.643 1.141 1.164 1.574.398.33.845.582 1.33.773.343.135.64.01.85-.28.097-.136.197-.265.338-.36.26-.172.539-.172.824-.073.192.066.362.174.524.29.373.27.751.537 1.12.812.17.128.3.291.332.508a.809.809 0 01-.079.444c-.216.483-.578.831-1.065 1.058-.25.121-.384.154-.619.154zm-1.957-9.61c1.158.006 2.21.444 3.048 1.338.565.605.902 1.32 1.014 2.13.067.47.045.94-.06 1.405-.04.178-.16.29-.327.304-.176.014-.34-.076-.403-.22a.407.407 0 01-.013-.25c.202-.964.022-1.854-.58-2.647-.553-.725-1.302-1.151-2.223-1.285a3.542 3.542 0 00-1.248.05.358.358 0 01-.43-.278.35.35 0 01.264-.437c.285-.071.576-.1.958-.11z"/><path d="M19.4 13.204a3.005 3.005 0 01-.019.91c-.032.2-.203.314-.422.289-.203-.023-.343-.18-.329-.377.01-.136.035-.271.037-.408.01-.964-.627-1.81-1.578-2.09a2.258 2.258 0 00-1.024-.063c-.356.062-.514-.25-.444-.482a.331.331 0 01.277-.24c1.04-.163 1.94.114 2.683.838.46.448.729.996.819 1.623z"/><path d="M16.413 11.806c.924.012 1.725.697 1.849 1.575.016.115.027.235.013.35-.026.196-.196.309-.415.292a.35.35 0 01-.336-.348 1.087 1.087 0 00-.192-.638c-.23-.325-.551-.486-.957-.494-.164-.003-.29-.068-.351-.219a.367.367 0 01.078-.417.389.389 0 01.31-.101z"/></g><defs><clipPath id="bwa"><path transform="translate(8 7)" d="M0 0h16v17H0z"/></clipPath></defs></svg><svg viewBox="0 0 24 24" id="view" xmlns="http://www.w3.org/2000/svg"><path d="M23.848 12.467c-.215.293-5.323 7.181-11.848 7.181S.366 12.76.152 12.468a.792.792 0 010-.935C.366 11.24 5.475 4.352 12 4.352c6.524 0 11.633 6.888 11.848 7.181a.791.791 0 010 .934zM12 5.934c-4.806 0-8.969 4.572-10.2 6.067 1.23 1.495 5.384 6.065 10.2 6.065 4.806 0 8.968-4.571 10.2-6.066-1.23-1.496-5.384-6.066-10.2-6.066z"/><path d="M12 16.747A4.753 4.753 0 017.251 12a4.753 4.753 0 014.747-4.747A4.753 4.753 0 0116.747 12a4.753 4.753 0 01-4.748 4.747zm0-7.912A3.168 3.168 0 008.833 12 3.168 3.168 0 0012 15.165 3.168 3.168 0 0015.164 12a3.168 3.168 0 00-3.165-3.165z"/></svg><svg viewBox="0 0 67 76" id="walnut" xmlns="http://www.w3.org/2000/svg"><g clip-path="url(#bya)"><path d="M10.498 31.445c1.692-4.367 3.756-8.484 6.763-12.083 5.199-6.225 11.819-9.1 19.877-8.478 2.059.15 3.981-.041 5.64-1.529.992-.893 2.102-.61 2.765.568.504.898.89 1.842 1.374 2.75.859 1.641 2.063 3.024 3.53 4.138 7.478 5.564 9.948 13.136 8.057 22.132-1.94 9.236-6.32 17.313-12.963 24.017-4.514 4.553-9.983 6.812-16.435 6.028-1.585-.19-3.146-.648-4.702-1.019-1.085-.257-2.148-.627-3.243-.905-7.452-1.873-11.61-6.798-12.993-14.266-.794-4.32-.467-8.63.357-12.903.546-2.839 1.3-5.639 1.973-8.45zm32.883-19.763c-.091-.032-.167-.058-.253-.105-1.869 1.259-3.96 1.443-6.115 1.277-3.731-.284-7.344.213-10.746 1.867-4.7 2.252-8.025 5.93-10.583 10.39-3.083 5.38-4.763 11.23-5.603 17.357-.592 4.337-.628 8.643.794 12.821 1.791 5.27 5.292 8.71 10.801 9.855.32.06.851-.048 1.018-.282 1.918-2.671 3.147-5.564 3.132-8.942-.034-5.33.973-10.468 3.637-15.133 1.636-2.89 3.5-5.648 5.403-8.375 3.217-4.592 6.181-9.29 7.434-14.842.445-1.962.722-3.93 1.08-5.888zM24.465 65.84c.247.12.403.21.57.267 6.152 1.988 11.89 1.303 17.14-2.72 3.073-2.371 5.474-5.355 7.514-8.62 3.18-5.121 5.896-10.474 7.02-16.484 1.482-8.07-.59-14.832-7.302-19.804a14.854 14.854 0 01-3.79-4.125c-.154-.243-.308-.486-.526-.837-.071.302-.124.456-.142.604-.638 4.373-1.823 8.606-4.086 12.413a119.774 119.774 0 01-6.282 9.53c-4.475 6.151-7.005 12.876-6.817 20.548.016.883-.157 1.77-.33 2.656-.472 2.382-1.59 4.47-2.97 6.572z"/><path d="M18.957 35.217c.285-1.209.54-2.428.84-3.631 1.104-4.296 3.49-7.63 7.31-9.895.71-.424 1.32-.315 1.616.201.307.537.069 1.074-.646 1.513-3.723 2.231-5.81 5.583-6.638 9.82-.702 3.627-2.136 6.914-4.525 9.764-.24.296-.504.565-.793.809-.485.416-1.005.44-1.435-.036-.404-.45-.35-.948.09-1.38 1.526-1.499 2.6-3.31 3.416-5.263.265-.613.444-1.274.668-1.918.036-.005.067.006.097.016zM36.25 22.965c-1.037 2.34-2.415 4.39-4.005 6.315-.493.585-1.09.687-1.536.256-.506-.503-.375-1.025.035-1.52 1.35-1.628 2.606-3.325 3.321-5.33.347-.946.486-1.982.61-2.971.081-.626.257-1.08.904-1.13.678-.04 1.099.365 1.052 1.037-.064 1.113-.246 2.22-.382 3.343zM22.823 51.587c-.79 1.927-1.757 3.725-3.082 5.328-.14.158-.285.331-.44.483-.446.448-.946.566-1.423.124-.491-.446-.411-.969-.012-1.432 2.123-2.427 3.351-5.269 3.796-8.452.086-.59.448-.945 1.058-.888.626.063.975.477.873 1.113-.235 1.26-.51 2.49-.77 3.724zm27.264-5.44c-1.463 4.102-3.288 6.994-6.345 8.976a6.253 6.253 0 01-1.427.724c-.507.185-1.048-.02-1.151-.556-.06-.365.119-1.025.386-1.156 4.77-2.503 6.528-6.864 7.354-11.825a1.19 1.19 0 01.05-.24c.111-.616.454-1.013 1.104-.924.665.094.948.554.814 1.23a238.1 238.1 0 00-.785 3.77zm-13.745 9.547a28.177 28.177 0 01-3.685 7.01c-.36.495-.792.757-1.382.449-.505-.262-.62-.715-.438-1.237.07-.2.23-.367.355-.53 2.332-3.421 4.032-7.08 4.372-11.28.039-.503.032-1.022.04-1.535.012-.667.269-1.112.971-1.125.718-.008.96.472.99 1.12.05 2.202-.307 4.35-.988 6.452l-.235.676zm10.846-25.907c-1.518 3.377-1.989 6.93-1.597 10.595.084.786-.21 1.286-.821 1.331-.755.064-1.052-.4-1.128-1.064-.46-3.911.057-7.69 1.599-11.334.058-.117.13-.23.194-.363.29-.587.73-.778 1.322-.52.52.216.69.757.43 1.355z"/></g><defs><clipPath id="bya"><path transform="rotate(19.205 8.23 62.975)" d="M0 0h48.203v62.664H0z"/></clipPath></defs></svg><svg viewBox="0 0 31 31" id="whatsapp" xmlns="http://www.w3.org/2000/svg"><circle cx="15.5" cy="15.5" r="15.5"/><path d="M24 15.307c0 4.035-3.297 7.307-7.364 7.307a7.382 7.382 0 01-3.56-.909L9 23l1.329-3.921a7.232 7.232 0 01-1.056-3.772C9.273 11.27 12.569 8 16.637 8 20.704 8.001 24 11.272 24 15.307zm-7.365-6.142c-3.413 0-6.19 2.756-6.19 6.144 0 1.344.438 2.588 1.18 3.6l-.774 2.281 2.378-.756a6.189 6.189 0 003.406 1.016c3.414 0 6.192-2.755 6.192-6.143 0-3.386-2.778-6.142-6.192-6.142zm3.72 7.825c-.046-.074-.167-.119-.347-.209-.18-.09-1.068-.523-1.233-.581-.166-.06-.287-.09-.407.089-.119.18-.465.582-.571.703-.105.12-.21.135-.39.046-.181-.09-.763-.279-1.453-.889a5.388 5.388 0 01-1.004-1.24c-.106-.18-.01-.276.079-.365.08-.08.18-.21.27-.315.091-.104.121-.177.181-.297s.03-.224-.015-.315c-.045-.09-.405-.97-.556-1.329-.15-.358-.3-.299-.406-.299-.105 0-.226-.014-.346-.014a.661.661 0 00-.481.223c-.165.18-.631.612-.631 1.493 0 .883.646 1.733.736 1.853.091.119 1.25 1.987 3.084 2.704 1.836.716 1.836.477 2.167.447.331-.03 1.068-.433 1.217-.85.151-.42.151-.78.106-.855z"/></svg><svg viewBox="0 0 48 48" id="without" xmlns="http://www.w3.org/2000/svg"><circle cx="24" cy="24" r="18"/><circle cx="24" cy="24" r="24" fill-opacity=".15"/><g clip-path="url(#caa)"><path d="M15.604 18.302a.775.775 0 00-.013.114v.781c.001.322.201.61.503.723v1.15a.723.723 0 00.689.72v6.642a.723.723 0 00-.689.72v1.146a.783.783 0 00-.503.73v.764c0 .142.116.258.259.258h17.41a.258.258 0 00.259-.258v-.765c0-.323-.2-.613-.503-.73v-1.152a.723.723 0 00-.688-.72V21.79a.723.723 0 00.688-.72v-1.15a.775.775 0 00.503-.723v-.776a.75.75 0 00-.012-.113.257.257 0 00.208-.47l-9.042-4.753a.258.258 0 00-.24 0l-9.042 4.747a.258.258 0 00.212.47zm1.006 2.066v-.398h2.978v.394l-2.978.004zm6.63 1.423v6.64a.723.723 0 00-.688.72v1.098h-2.451v-1.098a.723.723 0 00-.689-.72V21.79a.723.723 0 00.689-.72v-1.1h2.448v1.099c0 .385.303.702.688.72l.004.002zm-.172-1.423v-.398h2.978v.394l-2.978.004zm6.63 1.423v6.64a.723.723 0 00-.688.72v1.098h-2.451v-1.098a.723.723 0 00-.689-.72V21.79a.723.723 0 00.689-.72v-1.1h2.448v1.099c0 .385.303.702.688.72l.004.002zm-.172-1.423v-.398h2.978v.394l-2.977.004zm2.978 9.487v.394h-2.981v-.394h2.981zm-6.458 0v.394h-2.981v-.394h2.981zm-2.55-8.577h-.224a.206.206 0 01-.207-.206v-.188h2.978v.188a.206.206 0 01-.207.206h-2.34zm1.86.517v6.633h-1.603v-6.633h1.603zm-1.86 7.15h2.34c.114 0 .207.092.207.206v.188h-2.978v-.188c0-.114.092-.206.206-.206h.224zm-3.911.91v.394h-2.978v-.394h2.978zm-2.978-8.778v-.193h2.978v.188a.206.206 0 01-.207.206h-2.57a.207.207 0 01-.201-.208v.007zm2.29.723v6.628h-1.602v-6.633l1.601.005zm-2.29 7.357c0-.115.092-.207.206-.207h2.565c.114 0 .207.092.207.207v.187h-2.978v-.188zm16.396 1.88v.507H16.104v-.506c0-.148.12-.267.267-.267h16.366c.145 0 .264.116.266.261v.006zm-.502-1.88v.187h-2.978v-.188c0-.114.092-.206.207-.206h2.57c.11.003.198.091.2.201v.006zm-2.29-.724v-6.638h1.603v6.633l-1.603.005zm2.29-7.356a.206.206 0 01-.207.207h-2.563a.206.206 0 01-.206-.207v-.193h2.977l-.001.193zm-7.947-7.475l7.689 4.041H16.864l7.689-4.041zm-8.45 4.82a.26.26 0 01.259-.259h16.382c.143 0 .258.116.258.258v.782a.258.258 0 01-.258.258H16.363a.258.258 0 01-.259-.258v-.782z"/></g><defs><clipPath id="caa"><path transform="translate(14 14)" d="M0 0h19v19H0z"/></clipPath></defs></svg><svg viewBox="0 0 16 16" id="youtube" xmlns="http://www.w3.org/2000/svg"><path d="M15.376 12.664c-.577.686-1.643.966-3.68.966H4.304c-2.083 0-3.168-.298-3.743-1.029C0 11.888 0 10.838 0 9.385v-2.77C0 3.799.666 2.37 4.304 2.37h7.392c1.766 0 2.745.247 3.378.853.649.621.926 1.636.926 3.392v2.77c0 1.533-.043 2.589-.624 3.279zm-5.104-5.046L6.915 5.863a.516.516 0 00-.755.458v3.497a.516.516 0 00.754.458l3.357-1.743a.516.516 0 00.001-.915z"/></svg><svg viewBox="0 0 16 16" id="youtube1" xmlns="http://www.w3.org/2000/svg"><path d="M15.376 12.663c-.577.687-1.643.967-3.68.967H4.304c-2.083 0-3.168-.298-3.743-1.03C0 11.889 0 10.839 0 9.386v-2.77C0 3.799.666 2.37 4.304 2.37h7.392c1.766 0 2.745.247 3.378.853.649.621.926 1.635.926 3.392v2.77c0 1.532-.043 2.589-.624 3.278zm-5.104-5.046L6.915 5.863a.516.516 0 00-.755.457v3.498a.516.516 0 00.754.458l3.357-1.743a.516.516 0 00.001-.916z"/></svg></svg>